<svg width="3893" height="867" viewBox="0 0 3893 867" fill="none" xmlns="http://www.w3.org/2000/svg">
<path d="M1288.48 400.469C1289.31 406.262 1284.68 411.273 1278.83 411.273H1205.15C1199.95 411.273 1195.72 407.273 1194.61 402.2C1193.68 397.934 1192.36 393.923 1190.65 390.166C1187.88 383.851 1184 378.422 1179.01 373.879C1174.14 369.226 1168.21 365.68 1161.23 363.243C1154.25 360.695 1146.33 359.42 1137.47 359.42C1121.95 359.42 1108.83 363.187 1098.08 370.722C1087.44 378.256 1079.35 389.058 1073.81 403.129C1068.38 417.2 1065.67 434.097 1065.67 453.818C1065.67 474.648 1068.44 492.098 1073.98 506.169C1079.63 520.129 1087.77 530.655 1098.41 537.746C1109.05 544.726 1121.84 548.216 1136.8 548.216C1145.33 548.216 1152.98 547.163 1159.74 545.058C1166.49 542.842 1172.37 539.685 1177.35 535.585C1182.34 531.486 1186.38 526.555 1189.48 520.794C1191.41 517.279 1192.95 513.505 1194.12 509.473C1195.51 504.699 1199.66 501.043 1204.63 501.078L1278.98 501.606C1284.77 501.647 1289.36 506.605 1288.36 512.315C1286.43 523.293 1282.84 534.429 1277.57 545.723C1270.59 560.57 1260.67 574.308 1247.82 586.939C1235.08 599.459 1219.29 609.541 1200.45 617.186C1181.62 624.831 1159.74 628.653 1134.81 628.653C1103.56 628.653 1075.53 621.95 1050.71 608.544C1026.01 595.138 1006.45 575.416 992.047 549.379C977.754 523.342 970.608 491.489 970.608 453.818C970.608 415.926 977.92 384.017 992.545 358.091C1007.17 332.054 1026.89 312.388 1051.71 299.092C1076.53 285.686 1104.23 278.983 1134.81 278.983C1156.3 278.983 1176.08 281.919 1194.14 287.791C1212.2 293.663 1228.04 302.25 1241.67 313.551C1255.3 324.741 1266.27 338.536 1274.58 354.933C1281.44 368.485 1286.08 383.663 1288.48 400.469Z" fill="url(#paint0_linear_54_22)"/>
<path d="M1455.93 628.653C1428.23 628.653 1404.52 623.169 1384.8 612.2C1365.08 601.121 1349.96 585.72 1339.43 565.999C1328.91 546.166 1323.64 523.176 1323.64 497.028C1323.64 470.881 1328.91 447.946 1339.43 428.224C1349.96 408.392 1365.08 392.991 1384.8 382.023C1404.52 370.943 1428.23 365.403 1455.93 365.403C1483.63 365.403 1507.34 370.943 1527.06 382.023C1546.79 392.991 1561.91 408.392 1572.44 428.224C1582.96 447.946 1588.22 470.881 1588.22 497.028C1588.22 523.176 1582.96 546.166 1572.44 565.999C1561.91 585.72 1546.79 601.121 1527.06 612.2C1507.34 623.169 1483.63 628.653 1455.93 628.653ZM1456.6 560.847C1464.35 560.847 1471.06 558.243 1476.71 553.036C1482.36 547.828 1486.73 540.405 1489.84 530.766C1492.94 521.126 1494.49 509.659 1494.49 496.364C1494.49 482.957 1492.94 471.49 1489.84 461.962C1486.73 452.322 1482.36 444.899 1476.71 439.692C1471.06 434.484 1464.35 431.881 1456.6 431.881C1448.4 431.881 1441.36 434.484 1435.49 439.692C1429.62 444.899 1425.13 452.322 1422.03 461.962C1418.93 471.49 1417.38 482.957 1417.38 496.364C1417.38 509.659 1418.93 521.126 1422.03 530.766C1425.13 540.405 1429.62 547.828 1435.49 553.036C1441.36 558.243 1448.4 560.847 1456.6 560.847Z" fill="url(#paint1_linear_54_22)"/>
<path d="M1717.85 627.324C1699.68 627.324 1682.95 622.56 1667.66 613.031C1652.48 603.503 1640.3 589.044 1631.1 569.655C1622.02 550.266 1617.47 525.835 1617.47 496.364C1617.47 465.562 1622.24 440.523 1631.77 421.244C1641.41 401.966 1653.81 387.839 1668.99 378.865C1684.28 369.891 1700.35 365.403 1717.19 365.403C1729.82 365.403 1740.9 367.619 1750.43 372.051C1759.96 376.372 1767.93 382.189 1774.36 389.501C1780.66 396.563 1785.47 404.316 1788.79 412.762C1788.91 413.066 1789.2 413.267 1789.53 413.267V413.267C1789.96 413.267 1790.31 412.914 1790.31 412.479V293.636C1790.31 288.114 1794.79 283.636 1800.31 283.636H1872.05C1877.58 283.636 1882.05 288.114 1882.05 293.636V614C1882.05 619.523 1877.58 624 1872.05 624H1800.98C1795.46 624 1790.98 619.523 1790.98 614V583.313C1790.98 582.654 1790.44 582.119 1789.79 582.119V582.119C1789.3 582.119 1788.87 582.412 1788.68 582.858C1785.15 591.204 1780.15 598.713 1773.69 605.386C1767.16 612.145 1759.18 617.518 1749.76 621.507C1740.46 625.385 1729.82 627.324 1717.85 627.324ZM1751.76 556.858C1760.18 556.858 1767.38 554.42 1773.36 549.545C1779.46 544.56 1784.11 537.58 1787.32 528.605C1790.65 519.52 1792.31 508.773 1792.31 496.364C1792.31 483.733 1790.65 472.93 1787.32 463.956C1784.11 454.871 1779.46 447.946 1773.36 443.182C1767.38 438.307 1760.18 435.869 1751.76 435.869C1743.34 435.869 1736.14 438.307 1730.15 443.182C1724.28 447.946 1719.74 454.871 1716.52 463.956C1713.42 472.93 1711.87 483.733 1711.87 496.364C1711.87 508.994 1713.42 519.852 1716.52 528.938C1719.74 537.912 1724.28 544.837 1730.15 549.712C1736.14 554.476 1743.34 556.858 1751.76 556.858Z" fill="url(#paint2_linear_54_22)"/>
<path d="M2049.41 628.653C2022.15 628.653 1998.67 623.446 1978.94 613.031C1959.33 602.506 1944.21 587.437 1933.57 567.827C1923.05 548.105 1917.78 524.506 1917.78 497.028C1917.78 470.659 1923.1 447.614 1933.74 427.892C1944.38 408.17 1959.39 392.825 1978.78 381.857C1998.17 370.888 2021.05 365.403 2047.42 365.403C2066.69 365.403 2084.14 368.395 2099.77 374.378C2115.39 380.361 2128.74 389.058 2139.82 400.47C2150.9 411.771 2159.43 425.51 2165.41 441.686C2171.4 457.862 2174.39 476.088 2174.39 496.364V507.636C2174.39 513.159 2169.91 517.636 2164.39 517.636H1956.37C1950.85 517.636 1946.37 513.159 1946.37 507.636V477.114C1946.37 471.591 1950.85 467.114 1956.37 467.114H2079.81C2085.39 467.114 2090.07 462.459 2088.55 457.089C2087.6 453.77 2086.19 450.685 2084.31 447.835C2080.76 442.185 2075.95 437.808 2069.85 434.706C2063.87 431.493 2057.05 429.886 2049.41 429.886C2041.99 429.886 2035.17 431.493 2028.97 434.706C2022.76 437.808 2017.78 442.129 2014.01 447.669C2010.35 453.209 2008.42 459.69 2008.19 467.114V521.625C2008.19 529.824 2009.91 537.136 2013.35 543.562C2016.78 549.989 2021.71 555.03 2028.14 558.686C2034.56 562.342 2042.32 564.17 2051.4 564.17C2057.72 564.17 2063.48 563.284 2068.69 561.511C2074.01 559.739 2078.55 557.19 2082.32 553.866C2084.34 552.024 2086.07 549.991 2087.52 547.767C2089.79 544.265 2093.4 541.568 2097.57 541.568H2162.63C2168.79 541.568 2173.53 547.11 2171.88 553.049C2168.28 566.029 2162.3 577.603 2153.95 587.77C2143.2 600.733 2128.96 610.815 2111.23 618.017C2093.62 625.108 2073.01 628.653 2049.41 628.653Z" fill="url(#paint3_linear_54_22)"/>
<path d="M2210.49 293.636C2210.49 288.114 2214.97 283.636 2220.49 283.636H2318.79C2322.85 283.636 2326.5 286.087 2328.04 289.84L2403.85 474.575C2404.31 475.692 2405.39 476.42 2406.6 476.42V476.42C2407.81 476.42 2408.89 475.692 2409.35 474.575L2485.16 289.84C2486.7 286.087 2490.35 283.636 2494.41 283.636H2592.71C2598.23 283.636 2602.71 288.114 2602.71 293.636V614C2602.71 619.523 2598.23 624 2592.71 624H2522.3C2516.78 624 2512.3 619.523 2512.3 614V428.807C2512.3 427.935 2511.59 427.227 2510.72 427.227V427.227C2510.07 427.227 2509.48 427.626 2509.25 428.233L2436.34 614.978C2434.84 618.815 2431.14 621.341 2427.02 621.341H2386.19C2382.06 621.341 2378.36 618.805 2376.87 614.956L2303.95 426.905C2303.72 426.298 2303.13 425.898 2302.48 425.898V425.898C2301.61 425.898 2300.9 426.604 2300.9 427.476V614C2300.9 619.523 2296.42 624 2290.9 624H2220.49C2214.97 624 2210.49 619.523 2210.49 614V293.636Z" fill="url(#paint4_linear_54_22)"/>
<path d="M2657.83 624C2652.31 624 2647.83 619.523 2647.83 614V378.727C2647.83 373.204 2652.31 368.727 2657.83 368.727H2729.57C2735.09 368.727 2739.57 373.204 2739.57 378.727V614C2739.57 619.523 2735.09 624 2729.57 624H2657.83ZM2693.7 342.136C2681.29 342.136 2670.65 338.037 2661.79 329.838C2652.93 321.639 2648.49 311.778 2648.49 300.256C2648.49 288.733 2652.93 278.872 2661.79 270.673C2670.65 262.474 2681.29 258.375 2693.7 258.375C2706.22 258.375 2716.86 262.474 2725.61 270.673C2734.47 278.872 2738.9 288.733 2738.9 300.256C2738.9 311.778 2734.47 321.639 2725.61 329.838C2716.86 338.037 2706.22 342.136 2693.7 342.136Z" fill="url(#paint5_linear_54_22)"/>
<path d="M2796.31 624C2790.79 624 2786.31 619.523 2786.31 614V378.727C2786.31 373.204 2790.79 368.727 2796.31 368.727H2865.39C2870.91 368.727 2875.39 373.204 2875.39 378.727V415.757C2875.39 416.585 2876.06 417.256 2876.89 417.256V417.256C2877.57 417.256 2878.17 416.791 2878.35 416.132C2883.01 398.758 2890.28 386.003 2900.15 377.868C2910.35 369.558 2922.26 365.403 2935.88 365.403C2939.87 365.403 2943.81 365.736 2947.68 366.401C2949.13 366.601 2950.55 366.838 2951.95 367.112C2956.28 367.955 2959.15 371.906 2959.15 376.312V433.189C2959.15 440.045 2952.32 445.062 2945.53 444.091C2944.51 443.944 2943.45 443.807 2942.37 443.68C2935.72 442.905 2930.01 442.517 2925.25 442.517C2916.27 442.517 2908.19 444.567 2900.98 448.666C2893.89 452.655 2888.3 458.305 2884.2 465.618C2880.1 472.82 2878.05 481.295 2878.05 491.045V614C2878.05 619.523 2873.57 624 2868.05 624H2796.31Z" fill="url(#paint6_linear_54_22)"/>
<path d="M2999.23 624C2993.71 624 2989.23 619.523 2989.23 614V378.727C2989.23 373.204 2993.71 368.727 2999.23 368.727H3068.31C3073.83 368.727 3078.31 373.204 3078.31 378.727V415.757C3078.31 416.584 3078.98 417.256 3079.81 417.256V417.256C3080.49 417.256 3081.09 416.791 3081.27 416.132C3085.93 398.758 3093.2 386.003 3103.07 377.868C3113.27 369.558 3125.18 365.403 3138.81 365.403C3142.79 365.403 3146.73 365.736 3150.61 366.401C3152.05 366.601 3153.47 366.838 3154.87 367.112C3159.2 367.955 3162.07 371.906 3162.07 376.312V433.189C3162.07 440.045 3155.24 445.062 3148.46 444.091C3147.43 443.944 3146.37 443.807 3145.29 443.68C3138.64 442.905 3132.93 442.517 3128.17 442.517C3119.2 442.517 3111.11 444.567 3103.91 448.666C3096.81 452.655 3091.22 458.305 3087.12 465.618C3083.02 472.82 3080.97 481.295 3080.97 491.045V614C3080.97 619.523 3076.49 624 3070.97 624H2999.23Z" fill="url(#paint7_linear_54_22)"/>
<path d="M3300.51 628.653C3272.81 628.653 3249.1 623.169 3229.38 612.2C3209.66 601.121 3194.54 585.72 3184.01 565.999C3173.48 546.166 3168.22 523.176 3168.22 497.028C3168.22 470.881 3173.48 447.946 3184.01 428.224C3194.54 408.392 3209.66 392.991 3229.38 382.023C3249.1 370.943 3272.81 365.403 3300.51 365.403C3328.21 365.403 3351.92 370.943 3371.64 382.023C3391.36 392.991 3406.49 408.392 3417.01 428.224C3427.54 447.946 3432.8 470.881 3432.8 497.028C3432.8 523.176 3427.54 546.166 3417.01 565.999C3406.49 585.72 3391.36 601.121 3371.64 612.2C3351.92 623.169 3328.21 628.653 3300.51 628.653ZM3301.18 560.847C3308.93 560.847 3315.64 558.243 3321.29 553.036C3326.94 547.828 3331.31 540.405 3334.42 530.766C3337.52 521.126 3339.07 509.659 3339.07 496.364C3339.07 482.957 3337.52 471.49 3334.42 461.962C3331.31 452.322 3326.94 444.899 3321.29 439.692C3315.64 434.484 3308.93 431.881 3301.18 431.881C3292.98 431.881 3285.94 434.484 3280.07 439.692C3274.2 444.899 3269.71 452.322 3266.61 461.962C3263.51 471.49 3261.95 482.957 3261.95 496.364C3261.95 509.659 3263.51 521.126 3266.61 530.766C3269.71 540.405 3274.2 547.828 3280.07 553.036C3285.94 558.243 3292.98 560.847 3301.18 560.847Z" fill="url(#paint8_linear_54_22)"/>
<path d="M3480.03 624C3474.51 624 3470.03 619.523 3470.03 614V378.727C3470.03 373.204 3474.51 368.727 3480.03 368.727H3549.11C3554.63 368.727 3559.11 373.204 3559.11 378.727V415.757C3559.11 416.584 3559.78 417.256 3560.61 417.256V417.256C3561.29 417.256 3561.89 416.791 3562.06 416.132C3566.73 398.758 3574 386.003 3583.87 377.868C3594.06 369.558 3605.97 365.403 3619.6 365.403C3623.59 365.403 3627.52 365.736 3631.4 366.401C3632.85 366.601 3634.27 366.838 3635.67 367.112C3640 367.955 3642.87 371.906 3642.87 376.312V433.189C3642.87 440.045 3636.04 445.062 3629.25 444.091C3628.22 443.944 3627.17 443.807 3626.08 443.68C3619.44 442.905 3613.73 442.517 3608.97 442.517C3599.99 442.517 3591.9 444.567 3584.7 448.666C3577.61 452.655 3572.02 458.305 3567.92 465.618C3563.82 472.82 3561.77 481.295 3561.77 491.045V614C3561.77 619.523 3557.29 624 3551.77 624H3480.03Z" fill="url(#paint9_linear_54_22)"/>
<path d="M454.4 166.2C454.4 166.2 463.1 184.8 450.8 205.4C444.6 215.6 287.7 249 226.5 334C189 392.7 131.5 562.7 315.2 675.2C397.7 717.7 432.7 716.4 432.7 716.4C432.7 716.4 377.7 677.7 412.7 651.4C447.7 625.1 498.9 612.7 512.7 576.4C528.9 588.9 555.2 615.1 580.2 612.6C577.7 596.4 571.5 590.1 591.4 587.6C611.3 585.1 621.4 585.1 621.4 585.1C621.4 585.1 602.7 570.1 581.4 568.9C560.1 567.7 520.2 526.4 521.4 508.9C547.6 493.9 581.4 468.9 601.4 476.4C621.4 483.9 641.4 496.4 645.1 507.6C645.1 515.1 641.4 527.6 657.6 517.6C673.8 507.6 670.1 501.4 676.3 487.6C682.5 473.8 683.8 471.4 670.1 460.1C656.4 448.8 623.9 422.6 597.6 430.1C571.3 437.6 516.4 458.8 488.9 432.6C500.1 407.6 517.6 367.6 508.9 340.1C525.1 327.6 543.9 313.9 546.4 291.4C565.1 288.9 605.1 277.7 597.6 257.7C590.1 237.7 536.9 149 455.6 166.5" fill="white"/>
<path d="M713.9 370.4C727.6 334.2 750.1 272.9 728.9 270.4C707.7 267.9 683.9 325.4 677.7 340.4C671.5 355.4 646.5 430.4 660.2 440.4C673.9 450.4 713.9 370.4 713.9 370.4Z" fill="white"/>
<path d="M597.6 272.9C601.5 266.8 604.8 272.1 588 273.3C571.2 274.5 551 279.7 547.6 287.1C541.2 300.8 539 334.7 514.6 342.2C513.4 350.9 514.6 370.9 548.9 374.7C583.2 378.5 584.5 356 604.5 356.6C624.5 357.2 622.6 349.8 615.7 344.1C608.8 338.4 585.1 300.4 585.1 287.9C585.1 275.4 593.2 279.8 597.6 272.9ZM290.7 649.8C290.7 649.8 280.1 621.7 311.3 606.7C342.5 591.7 370.6 603.6 376.3 614.2C382 624.8 367 667.3 313.2 667.9C300.1 657.3 290.7 649.8 290.7 649.8Z" fill="#FFAABA"/>
<g opacity="0.7">
<path d="M717.904 290.75C718.404 292.625 718.154 294.625 718.154 296.75C718.154 298.75 718.029 300.875 717.404 302.875C717.529 303.25 717.404 303.875 717.404 304.375C716.904 305 717.279 305.5 717.154 306C717.904 306.75 719.029 307.625 718.529 308.625C718.279 309.25 717.529 309.5 716.779 309.75C716.404 311.5 715.904 313.5 715.529 315.5C715.529 316 715.529 316.75 715.404 317.25C715.029 318.5 714.654 319.625 714.279 321C714.029 322.125 714.279 324.25 713.029 324.5C712.529 325.75 712.279 326.75 711.654 328C711.404 328.125 711.154 327.875 710.904 328C710.529 328.375 710.654 329 710.279 329.375C710.029 329.625 709.654 329.5 709.529 329.75C709.154 330.375 709.279 331.25 708.904 332.125C708.338 332.615 707.872 333.209 707.529 333.875C706.904 335.25 706.779 337.125 705.654 338.25C705.404 338.5 704.779 338.625 704.404 339C704.154 339.25 703.904 339.75 703.654 340.125C703.279 340.625 702.904 341.375 702.529 342C701.279 344.125 699.654 346.625 698.404 349C698.279 349.375 698.154 350 698.029 350.375C697.654 351.375 696.904 352.25 696.529 353.25C695.904 354.75 694.904 357.375 693.404 358.75C693.279 358.875 692.904 359 692.654 359.25C692.529 359.5 692.529 359.875 692.279 360.25C692.279 360.375 691.779 360.375 691.654 360.625C691.404 360.875 691.279 361.125 691.154 361.375C690.654 361.75 689.904 362 689.529 362.5C689.279 362.875 689.154 363.375 688.779 363.875C688.404 364.375 687.904 364.75 687.529 365.375C686.404 366.875 685.904 368.875 684.154 369.5C683.779 369.625 683.154 369.625 682.654 369.75C682.279 369.375 682.654 368.75 682.529 368.375C682.529 368.125 682.279 368 682.154 367.75C682.029 367.25 681.779 366.125 681.779 365.5C681.779 364.875 682.154 364.375 682.154 363.5C682.154 362.875 682.029 362 682.029 361.25C682.029 360.875 682.029 360.5 682.029 360.125C682.029 359.5 682.029 359.125 682.029 358.375C682.029 357.5 682.029 356.625 681.904 355.75C682.279 353.625 682.529 352 683.154 349.625C683.404 348.625 684.029 346.75 684.529 345.5C685.529 343.25 686.529 340.625 687.779 338.125C688.154 337.375 688.779 336.75 689.154 335.875C689.279 335.5 689.404 334.875 689.529 334.375C691.529 330.25 694.279 326.625 696.404 322.25C698.154 318.75 699.904 315.5 702.279 311.625C703.279 309.875 704.154 308 705.279 306.625C706.029 305.625 707.279 303.625 708.154 301.75C708.404 301.125 708.404 300.5 709.404 300.375C710.279 299.25 711.029 297.875 712.029 296.875C712.279 296.625 712.654 296.5 712.904 296.375C713.154 296.125 713.279 295.75 713.654 295.5C714.279 295 715.404 294.5 716.154 293.5C716.279 293.25 716.404 293 716.654 292.75C717.154 292.125 718.029 290.5 718.904 290.25C718.904 290.25 719.154 290.25 719.279 290.25" fill="#FFAABA"/>
</g>
<g opacity="0.7">
<path d="M709.904 316.25C710.654 318.625 710.779 321.375 711.029 324C711.029 326.625 710.904 329.625 710.154 332.625C710.154 333.125 710.029 334 710.029 334.625C709.404 335.5 709.779 336.125 709.529 336.875C710.404 337.875 711.529 338.875 710.904 340.375C710.529 341.375 709.529 341.625 708.654 342.125C707.904 344.5 707.154 347.375 706.404 350C706.279 350.75 706.154 351.625 705.904 352.375C705.279 354 704.529 355.625 704.029 357.5C703.529 359 703.654 361.75 702.029 362C701.279 363.625 700.904 364.875 700.029 366.5C699.654 366.75 699.404 366.375 699.029 366.5C698.654 367 698.529 367.75 698.154 368.25C697.904 368.5 697.529 368.5 697.279 368.875C696.779 369.625 696.904 370.75 696.404 371.875C695.876 372.354 695.414 372.9 695.029 373.5L694.904 373.75C694.154 375.75 693.904 378.25 692.654 379.875C692.279 380.375 691.654 380.5 691.279 381C691.029 381.375 690.779 382.125 690.404 382.625C690.029 383.375 689.529 384.375 689.154 385.25C687.904 388.25 686.029 391.75 684.779 395.25C684.654 395.875 684.529 396.625 684.404 397.25C683.904 398.625 683.154 400 682.779 401.375C682.029 403.5 681.029 407.25 679.029 409.25C678.904 409.5 678.404 409.75 678.154 410C677.904 410.375 678.029 410.875 677.654 411.375C677.529 411.5 677.154 411.625 676.904 411.875C676.654 412.25 676.529 412.625 676.279 413C675.654 413.625 674.779 414 674.154 414.75C673.779 415.25 673.529 416 673.029 416.625C672.529 417.25 671.904 418 671.279 418.625L669.029 421.875C668.404 422.875 667.529 423.75 666.529 424.125C666.029 424.375 665.279 424.25 664.654 424.375C664.279 423.875 664.654 423.125 664.654 422.5C664.654 422.25 664.404 421.875 664.404 421.625C664.404 420.875 664.279 419.5 664.404 418.75C664.404 418 665.029 417.375 665.279 416.25C665.404 415.375 665.279 414.375 665.279 413.375C665.279 413 665.404 412.5 665.404 411.875C665.404 411.125 665.404 410.75 665.529 409.75C665.654 408.625 665.529 407.5 665.404 406.375C665.904 403.75 666.154 401.625 666.904 398.5C667.154 397.125 667.779 394.625 668.404 393C668.904 391.375 669.529 389.75 670.029 388C670.529 386.25 671.154 384.5 671.779 382.75C672.154 381.625 672.779 380.625 673.279 379.375C673.529 378.75 673.529 378 673.779 377.25C674.279 375.75 674.904 374.125 675.654 372.75C676.345 371.366 677.053 369.991 677.779 368.625L678.904 366.375C679.279 365.75 679.654 365 680.029 364.25C680.819 362.77 681.569 361.27 682.279 359.75C683.511 357.343 684.803 354.967 686.154 352.625C687.63 350.193 689.13 347.777 690.654 345.375C692.029 343.125 693.404 340.625 694.779 338.75C695.779 337.375 697.404 334.875 698.529 332.375C698.904 331.5 698.904 330.75 699.904 330.625C701.029 329.125 701.904 327.375 702.904 326C703.154 325.75 703.529 325.5 703.904 325.125C704.154 324.75 704.404 324.25 704.654 323.875C705.279 323.125 706.654 322.375 707.404 320.75C707.529 320.375 707.529 320 707.779 319.5C708.154 318.5 709.029 316.125 709.904 315.625C709.904 315.625 710.154 315.625 710.279 315.625" fill="#FFAABA"/>
</g>
<path d="M682.8 344.2C682.8 344.2 672.8 382.5 677 414.2L682.8 344.2ZM694.6 318.3C693.9 315.7 688.9 392.6 690.4 395.3C691.8 397.9 699.3 334.6 694.6 318.3Z" fill="white"/>
<path d="M456 170.9C456 170.9 461.8 204.1 407.7 221.6C353.6 239.1 278.9 254 223.9 319.9C168.9 385.7 158.9 494.8 196.4 566.5C233.9 638.1 325.5 727.3 490.5 727.3C655.5 727.3 786.6 600.7 786.6 513.2C786.6 467.4 761.5 477.6 752.8 520.5C745 559.3 672.3 704.1 489.8 704.1C307.3 704.1 214 593.3 202.3 498.3C190.7 403.3 217.1 321.5 313 272.3C408.8 223.2 469.6 242.8 456.3 171.1" fill="#777777"/>
<path d="M410.5 427.5C410.5 427.5 399.7 477.5 347.2 501.6C294.7 525.7 272.2 539.1 264.7 580.7C284.7 547.4 343 540.7 375.5 508.2C408 475.7 410.5 427.4 410.5 427.4M424.6 311.6C424.6 311.6 469.6 369.9 522.9 341.6C576.2 313.3 548.7 247.5 547.9 243.3C547.1 239.2 553.7 316.6 513.8 329.9C473.8 343.2 424.7 311.6 424.7 311.6M307.2 660C307.2 660 335.5 661.6 356.3 638.4C377.1 615.1 365.4 578.4 399.6 565.1C433.7 551.8 457.1 560.1 457.1 560.1C457.1 560.1 396.3 568.4 391.3 603.4C386.3 638.4 378 654.2 364.7 665C351.4 675.8 333.9 677.5 333.9 677.5L307.3 660H307.2Z" fill="#777777"/>
<path d="M435.7 478.6C435.7 478.6 486.3 470.2 509.4 418.6C528.3 376.4 515.6 339.9 515.6 339.9L490 343.6C490 343.6 500.6 374.2 492.5 401.7C484.4 429.2 465.7 461 435.7 478.5M708.3 361.5C690.3 406.6 663.6 439 660.5 437.3C654.9 434.2 660.1 394.8 678.1 349.6C696.1 304.5 718.6 270.1 726.9 273.4C735.2 276.6 726.3 316.3 708.3 361.5ZM734.5 270.9C714 259.8 688.7 301.4 668 350C647.3 398.6 644.9 437.7 660.9 444.7C682.2 454 702.3 416.9 723 368.3C743.7 319.7 753 280.8 734.5 270.8" fill="#777777"/>
<path d="M361.4 515.9C361.4 515.9 374.3 554.6 438.9 546.7C499.7 539.2 525.8 515.8 563 492.6C589.6 476 588 483.5 591.3 484.3C594.6 485.1 609.6 494.3 625.4 492.6C626.2 500.9 618 494.2 614.6 501.7C613 506.7 627.2 530.2 647.9 526.7C682 520.9 672.4 506.7 679.1 490.9C685.7 475.1 690.3 466.8 657.1 444.3C631.3 421 617.1 426.9 604.6 426.9C592.1 426.9 559.6 444.3 537.1 440.2C514.6 436.1 500.5 427.7 500.5 427.7L485.6 444.3C485.6 444.3 513 465.1 544.7 457.6C576.3 450.1 599.7 426 627.2 438.5C654.7 451 660 459.3 668.4 465.5C677.9 472.5 678.8 480 672.1 486.7C665.5 493.3 672.1 498.3 668 505.8C663.9 513.3 643 516.6 643 516.6C643 516.6 665.8 487.3 638 485C618 483.4 605.5 456.7 577.2 470.9C536.6 491.2 478.9 525.9 438.9 530C400 534 385.6 521.7 375.6 498.4C364 508.4 361.5 515.9 361.5 515.9" fill="#777777"/>
<path d="M504.7 524.2C504.7 524.2 533 539.2 524.7 571.7C516.4 604.2 478.9 626.7 454.7 637.5C430.6 648.3 412.6 662.6 430.6 671.6C445.6 679.1 453.9 660 475.6 656.6C497.2 653.3 516.4 661.6 518.1 674.1C509 669.1 502.3 669.1 502.3 669.1C502.3 669.1 509.8 674.1 510.6 682.4C511.4 690.7 509.8 686.5 504.8 686.5C492.3 686.5 490.7 675.7 479.8 677.4C452.3 679.9 450.7 691.5 435.7 693.2C420.7 694.8 395.7 686.6 399.1 667.4C402.4 648.3 428.2 634.9 452.4 624.9C476.5 614.9 513.2 583.3 508.2 554.9C503.2 526.6 481.6 532.4 481.6 532.4L504.9 524.1L504.7 524.2ZM575.7 288.3C575.7 288.3 587.5 294.2 595 324.2C600 335 606.6 343.7 612.5 346.2C618.3 348.7 610 351.2 605.9 350.3C601.8 349.5 593 345.8 587.2 350.7C581.4 355.6 567.2 369 547.2 365.7C527.2 362.4 510.2 349.7 510.2 349.7C510.2 349.7 517.7 382.8 562.2 380.7C593.1 379.3 586.3 363.2 607.2 359.9C628 356.6 625.8 346.1 621.3 337.4C614.3 323.7 592.2 320.4 589.7 280.2C587.2 276.1 571.6 280.7 575.8 288.2M647 497.3C648.8 499.1 632.3 536.6 632.3 536.6C632.3 536.6 629 545.7 620.1 542.5C611 539.2 613.4 532.6 613.4 532.6L634.6 494.1C634.6 494.1 646.2 496.4 647.1 497.3M670.5 444L666.4 456.5L652.8 446.1L656.4 438.2L670.5 444Z" fill="#777777"/>
<path d="M518 516.7C515.5 525.8 547.1 579.2 568.8 575.8C590.4 572.5 593.7 579.1 587.1 583.3C580.5 587.4 568.8 589.1 570.5 594.9C572.1 600.7 576.7 606.5 566 604.9C555.2 603.3 533.1 591.6 519.8 569.1C515.7 582.4 514 586.6 514 586.6C514 586.6 556.5 630.7 599.8 612.4C592.3 606.6 571.5 608.3 589 598.3C606.5 588.3 619.8 585 628.1 600.8C632.2 600 632.2 563.3 577.3 565.8C558.2 563.3 532.3 525.8 532.3 506.7C527.3 511.7 520.7 507.5 518.2 516.7M687.6 332.4C687.6 332.4 676.7 365.2 681.3 392.4L687.6 332.4ZM698.8 313C698.3 311 693.8 370.2 694.8 372.2C695.8 374.2 702.1 325.6 698.8 313ZM553.2 280.2C553.2 280.2 600.2 276.1 591.9 257.3C566.8 200.8 519 167.8 430.7 171.1C480.7 151.1 523.2 153.6 564 188.6C584.4 206.1 593.8 227.4 601.1 243.7C612.7 269.7 609.3 272.1 596.5 279.4C580.8 288.2 553.8 282.6 553.2 280.2Z" fill="#777777"/>
<path d="M557.8 287.2C557.8 287.2 570.7 296.1 580.9 288.8C585.5 284 588.6 281.4 575.5 282L559.4 281.4C548.3 279.2 548.5 282.5 557.9 287.2H557.8Z" fill="#777777"/>
<defs>
<linearGradient id="paint0_linear_54_22" x1="970.608" y1="443.514" x2="3642.87" y2="443.514" gradientUnits="userSpaceOnUse">
<stop stop-color="white"/>
<stop offset="1" stop-color="#FFAABA"/>
</linearGradient>
<linearGradient id="paint1_linear_54_22" x1="970.608" y1="443.514" x2="3642.87" y2="443.514" gradientUnits="userSpaceOnUse">
<stop stop-color="white"/>
<stop offset="1" stop-color="#FFAABA"/>
</linearGradient>
<linearGradient id="paint2_linear_54_22" x1="970.608" y1="443.514" x2="3642.87" y2="443.514" gradientUnits="userSpaceOnUse">
<stop stop-color="white"/>
<stop offset="1" stop-color="#FFAABA"/>
</linearGradient>
<linearGradient id="paint3_linear_54_22" x1="970.608" y1="443.514" x2="3642.87" y2="443.514" gradientUnits="userSpaceOnUse">
<stop stop-color="white"/>
<stop offset="1" stop-color="#FFAABA"/>
</linearGradient>
<linearGradient id="paint4_linear_54_22" x1="970.608" y1="443.514" x2="3642.87" y2="443.514" gradientUnits="userSpaceOnUse">
<stop stop-color="white"/>
<stop offset="1" stop-color="#FFAABA"/>
</linearGradient>
<linearGradient id="paint5_linear_54_22" x1="970.608" y1="443.514" x2="3642.87" y2="443.514" gradientUnits="userSpaceOnUse">
<stop stop-color="white"/>
<stop offset="1" stop-color="#FFAABA"/>
</linearGradient>
<linearGradient id="paint6_linear_54_22" x1="970.608" y1="443.514" x2="3642.87" y2="443.514" gradientUnits="userSpaceOnUse">
<stop stop-color="white"/>
<stop offset="1" stop-color="#FFAABA"/>
</linearGradient>
<linearGradient id="paint7_linear_54_22" x1="970.608" y1="443.514" x2="3642.87" y2="443.514" gradientUnits="userSpaceOnUse">
<stop stop-color="white"/>
<stop offset="1" stop-color="#FFAABA"/>
</linearGradient>
<linearGradient id="paint8_linear_54_22" x1="970.608" y1="443.514" x2="3642.87" y2="443.514" gradientUnits="userSpaceOnUse">
<stop stop-color="white"/>
<stop offset="1" stop-color="#FFAABA"/>
</linearGradient>
<linearGradient id="paint9_linear_54_22" x1="970.608" y1="443.514" x2="3642.87" y2="443.514" gradientUnits="userSpaceOnUse">
<stop stop-color="white"/>
<stop offset="1" stop-color="#FFAABA"/>
</linearGradient>
</defs>
</svg>
